<mxfile host="Electron" modified="2024-02-18T11:16:57.349Z" agent="Mozilla/5.0 (Windows NT 10.0; Win64; x64) AppleWebKit/537.36 (KHTML, like Gecko) draw.io/22.1.2 Chrome/114.0.5735.289 Electron/25.9.4 Safari/537.36" etag="nzXo5VVe7hDk-LWPCpd1" version="22.1.2" type="device">
  <diagram name="Page-1" id="cSJcHAnCEQtnL0YvedTT">
    <mxGraphModel dx="1219" dy="722" grid="1" gridSize="10" guides="1" tooltips="1" connect="1" arrows="1" fold="1" page="1" pageScale="1" pageWidth="850" pageHeight="1100" math="0" shadow="0">
      <root>
        <mxCell id="0" />
        <mxCell id="1" parent="0" />
        <mxCell id="hV747-HMMlt6lKch66E_-8" style="edgeStyle=orthogonalEdgeStyle;rounded=0;orthogonalLoop=1;jettySize=auto;html=1;entryX=1;entryY=0.5;entryDx=0;entryDy=0;curved=1;" edge="1" parent="1" source="hV747-HMMlt6lKch66E_-1" target="hV747-HMMlt6lKch66E_-3">
          <mxGeometry relative="1" as="geometry" />
        </mxCell>
        <mxCell id="hV747-HMMlt6lKch66E_-9" value="4. Sends tokenized data back" style="edgeLabel;html=1;align=center;verticalAlign=middle;resizable=0;points=[];" vertex="1" connectable="0" parent="hV747-HMMlt6lKch66E_-8">
          <mxGeometry x="0.0315" y="1" relative="1" as="geometry">
            <mxPoint as="offset" />
          </mxGeometry>
        </mxCell>
        <mxCell id="hV747-HMMlt6lKch66E_-1" value="Data Privacy Vault" style="rounded=0;whiteSpace=wrap;html=1;fillColor=#ffe6cc;strokeColor=#d79b00;" vertex="1" parent="1">
          <mxGeometry x="220.06" y="694" width="120" height="60" as="geometry" />
        </mxCell>
        <mxCell id="hV747-HMMlt6lKch66E_-4" style="edgeStyle=orthogonalEdgeStyle;rounded=0;orthogonalLoop=1;jettySize=auto;html=1;entryX=0.5;entryY=0;entryDx=0;entryDy=0;" edge="1" parent="1" source="hV747-HMMlt6lKch66E_-2" target="hV747-HMMlt6lKch66E_-3">
          <mxGeometry relative="1" as="geometry" />
        </mxCell>
        <mxCell id="hV747-HMMlt6lKch66E_-5" value="1. Sends credit card info securely" style="edgeLabel;html=1;align=center;verticalAlign=middle;resizable=0;points=[];" vertex="1" connectable="0" parent="hV747-HMMlt6lKch66E_-4">
          <mxGeometry x="-0.14" y="-1" relative="1" as="geometry">
            <mxPoint as="offset" />
          </mxGeometry>
        </mxCell>
        <mxCell id="hV747-HMMlt6lKch66E_-2" value="App UI&lt;br&gt;- Payment Interface" style="rounded=0;whiteSpace=wrap;html=1;fillColor=#ffe6cc;strokeColor=#d79b00;" vertex="1" parent="1">
          <mxGeometry x="220.06" y="424" width="120" height="60" as="geometry" />
        </mxCell>
        <mxCell id="hV747-HMMlt6lKch66E_-6" style="edgeStyle=orthogonalEdgeStyle;rounded=0;orthogonalLoop=1;jettySize=auto;html=1;entryX=-0.04;entryY=0.37;entryDx=0;entryDy=0;entryPerimeter=0;" edge="1" parent="1" source="hV747-HMMlt6lKch66E_-3" target="hV747-HMMlt6lKch66E_-1">
          <mxGeometry relative="1" as="geometry">
            <Array as="points">
              <mxPoint x="150.06" y="574" />
              <mxPoint x="150.06" y="716" />
            </Array>
          </mxGeometry>
        </mxCell>
        <mxCell id="hV747-HMMlt6lKch66E_-7" value="2. Sends sensitive data (credit card info)" style="edgeLabel;html=1;align=center;verticalAlign=middle;resizable=0;points=[];" vertex="1" connectable="0" parent="hV747-HMMlt6lKch66E_-6">
          <mxGeometry x="-0.0933" relative="1" as="geometry">
            <mxPoint as="offset" />
          </mxGeometry>
        </mxCell>
        <mxCell id="hV747-HMMlt6lKch66E_-3" value="Server" style="rounded=0;whiteSpace=wrap;html=1;fillColor=#ffe6cc;strokeColor=#d79b00;" vertex="1" parent="1">
          <mxGeometry x="220.06" y="544" width="120" height="60" as="geometry" />
        </mxCell>
        <mxCell id="hV747-HMMlt6lKch66E_-10" value="Highly secure Database" style="shape=cylinder3;whiteSpace=wrap;html=1;boundedLbl=1;backgroundOutline=1;size=15;fillColor=#d5e8d4;strokeColor=#82b366;" vertex="1" parent="1">
          <mxGeometry x="250.06" y="814" width="60" height="80" as="geometry" />
        </mxCell>
        <mxCell id="hV747-HMMlt6lKch66E_-11" value="Application database" style="shape=cylinder3;whiteSpace=wrap;html=1;boundedLbl=1;backgroundOutline=1;size=15;fillColor=#d5e8d4;strokeColor=#82b366;" vertex="1" parent="1">
          <mxGeometry x="490.06" y="424" width="60" height="80" as="geometry" />
        </mxCell>
        <mxCell id="hV747-HMMlt6lKch66E_-12" style="edgeStyle=orthogonalEdgeStyle;rounded=0;orthogonalLoop=1;jettySize=auto;html=1;entryX=0;entryY=0.5;entryDx=0;entryDy=0;entryPerimeter=0;curved=1;" edge="1" parent="1" source="hV747-HMMlt6lKch66E_-3" target="hV747-HMMlt6lKch66E_-11">
          <mxGeometry relative="1" as="geometry" />
        </mxCell>
        <mxCell id="hV747-HMMlt6lKch66E_-13" value="5. Saves tokenized data against user id" style="edgeLabel;html=1;align=center;verticalAlign=middle;resizable=0;points=[];" vertex="1" connectable="0" parent="hV747-HMMlt6lKch66E_-12">
          <mxGeometry x="-0.1446" y="2" relative="1" as="geometry">
            <mxPoint x="57" y="-4" as="offset" />
          </mxGeometry>
        </mxCell>
        <mxCell id="hV747-HMMlt6lKch66E_-14" style="edgeStyle=orthogonalEdgeStyle;rounded=0;orthogonalLoop=1;jettySize=auto;html=1;entryX=0.5;entryY=0;entryDx=0;entryDy=0;entryPerimeter=0;" edge="1" parent="1" source="hV747-HMMlt6lKch66E_-1" target="hV747-HMMlt6lKch66E_-10">
          <mxGeometry relative="1" as="geometry" />
        </mxCell>
        <mxCell id="hV747-HMMlt6lKch66E_-15" value="3. Generates a random token and saves it with original data in encrypted form" style="edgeLabel;html=1;align=center;verticalAlign=middle;resizable=0;points=[];" vertex="1" connectable="0" parent="hV747-HMMlt6lKch66E_-14">
          <mxGeometry x="-0.1733" y="-2" relative="1" as="geometry">
            <mxPoint x="42" as="offset" />
          </mxGeometry>
        </mxCell>
        <mxCell id="hV747-HMMlt6lKch66E_-16" value="&lt;b&gt;&lt;font style=&quot;font-size: 18px;&quot;&gt;Tokenization flow&lt;/font&gt;&lt;/b&gt;" style="text;html=1;align=center;verticalAlign=middle;resizable=0;points=[];autosize=1;strokeColor=none;fillColor=none;" vertex="1" parent="1">
          <mxGeometry x="204.06" y="360" width="170" height="40" as="geometry" />
        </mxCell>
        <mxCell id="hV747-HMMlt6lKch66E_-18" style="edgeStyle=orthogonalEdgeStyle;rounded=0;orthogonalLoop=1;jettySize=auto;html=1;entryX=1;entryY=0.5;entryDx=0;entryDy=0;curved=1;" edge="1" parent="1" source="hV747-HMMlt6lKch66E_-20" target="hV747-HMMlt6lKch66E_-26">
          <mxGeometry relative="1" as="geometry" />
        </mxCell>
        <mxCell id="hV747-HMMlt6lKch66E_-19" value="4. Sends original data back" style="edgeLabel;html=1;align=center;verticalAlign=middle;resizable=0;points=[];" vertex="1" connectable="0" parent="hV747-HMMlt6lKch66E_-18">
          <mxGeometry x="0.0315" y="1" relative="1" as="geometry">
            <mxPoint as="offset" />
          </mxGeometry>
        </mxCell>
        <mxCell id="hV747-HMMlt6lKch66E_-20" value="Data Privacy Vault" style="rounded=0;whiteSpace=wrap;html=1;fillColor=#ffe6cc;strokeColor=#d79b00;" vertex="1" parent="1">
          <mxGeometry x="780.1199999999999" y="694" width="120" height="60" as="geometry" />
        </mxCell>
        <mxCell id="hV747-HMMlt6lKch66E_-24" style="edgeStyle=orthogonalEdgeStyle;rounded=0;orthogonalLoop=1;jettySize=auto;html=1;entryX=-0.04;entryY=0.37;entryDx=0;entryDy=0;entryPerimeter=0;" edge="1" parent="1" source="hV747-HMMlt6lKch66E_-26" target="hV747-HMMlt6lKch66E_-20">
          <mxGeometry relative="1" as="geometry">
            <Array as="points">
              <mxPoint x="710.1199999999999" y="574" />
              <mxPoint x="710.1199999999999" y="716" />
            </Array>
          </mxGeometry>
        </mxCell>
        <mxCell id="hV747-HMMlt6lKch66E_-25" value="2. Request detokenized data for token" style="edgeLabel;html=1;align=center;verticalAlign=middle;resizable=0;points=[];" vertex="1" connectable="0" parent="hV747-HMMlt6lKch66E_-24">
          <mxGeometry x="-0.0933" relative="1" as="geometry">
            <mxPoint as="offset" />
          </mxGeometry>
        </mxCell>
        <mxCell id="hV747-HMMlt6lKch66E_-26" value="Some service" style="rounded=0;whiteSpace=wrap;html=1;fillColor=#ffe6cc;strokeColor=#d79b00;" vertex="1" parent="1">
          <mxGeometry x="780.1199999999999" y="544" width="120" height="60" as="geometry" />
        </mxCell>
        <mxCell id="hV747-HMMlt6lKch66E_-27" value="Highly secure Database" style="shape=cylinder3;whiteSpace=wrap;html=1;boundedLbl=1;backgroundOutline=1;size=15;fillColor=#d5e8d4;strokeColor=#82b366;" vertex="1" parent="1">
          <mxGeometry x="810.1199999999999" y="814" width="60" height="80" as="geometry" />
        </mxCell>
        <mxCell id="hV747-HMMlt6lKch66E_-28" value="Application database" style="shape=cylinder3;whiteSpace=wrap;html=1;boundedLbl=1;backgroundOutline=1;size=15;fillColor=#d5e8d4;strokeColor=#82b366;" vertex="1" parent="1">
          <mxGeometry x="1050.12" y="424" width="60" height="80" as="geometry" />
        </mxCell>
        <mxCell id="hV747-HMMlt6lKch66E_-29" style="edgeStyle=orthogonalEdgeStyle;rounded=0;orthogonalLoop=1;jettySize=auto;html=1;entryX=0;entryY=0.5;entryDx=0;entryDy=0;entryPerimeter=0;curved=1;" edge="1" parent="1" source="hV747-HMMlt6lKch66E_-26" target="hV747-HMMlt6lKch66E_-28">
          <mxGeometry relative="1" as="geometry" />
        </mxCell>
        <mxCell id="hV747-HMMlt6lKch66E_-30" value="1. Fetches token data" style="edgeLabel;html=1;align=center;verticalAlign=middle;resizable=0;points=[];" vertex="1" connectable="0" parent="hV747-HMMlt6lKch66E_-29">
          <mxGeometry x="-0.1446" y="2" relative="1" as="geometry">
            <mxPoint x="57" y="-4" as="offset" />
          </mxGeometry>
        </mxCell>
        <mxCell id="hV747-HMMlt6lKch66E_-31" style="edgeStyle=orthogonalEdgeStyle;rounded=0;orthogonalLoop=1;jettySize=auto;html=1;entryX=0.5;entryY=0;entryDx=0;entryDy=0;entryPerimeter=0;" edge="1" parent="1" source="hV747-HMMlt6lKch66E_-20" target="hV747-HMMlt6lKch66E_-27">
          <mxGeometry relative="1" as="geometry" />
        </mxCell>
        <mxCell id="hV747-HMMlt6lKch66E_-32" value="3. Checks permissions of requesting service and returns decrypted originial data" style="edgeLabel;html=1;align=center;verticalAlign=middle;resizable=0;points=[];" vertex="1" connectable="0" parent="hV747-HMMlt6lKch66E_-31">
          <mxGeometry x="-0.1733" y="-2" relative="1" as="geometry">
            <mxPoint x="42" as="offset" />
          </mxGeometry>
        </mxCell>
        <mxCell id="hV747-HMMlt6lKch66E_-33" value="&lt;b&gt;&lt;font style=&quot;font-size: 18px;&quot;&gt;Detokenization flow&lt;/font&gt;&lt;/b&gt;" style="text;html=1;align=center;verticalAlign=middle;resizable=0;points=[];autosize=1;strokeColor=none;fillColor=none;" vertex="1" parent="1">
          <mxGeometry x="810.06" y="362" width="190" height="40" as="geometry" />
        </mxCell>
      </root>
    </mxGraphModel>
  </diagram>
</mxfile>
